<svg width="24" height="24" viewBox="0 0 24 24" fill="none" xmlns="http://www.w3.org/2000/svg">
<path d="M10 3.5V11.5C10 11.7761 10.2239 12 10.5 12H13.5C13.7761 12 14 11.7761 14 11.5V3.5C14 3.22386 13.7761 3 13.5 3H10.5C10.2239 3 10 3.22386 10 3.5Z" stroke="#F8F8F8" stroke-width="2" stroke-linecap="round" stroke-linejoin="round"/>
<path d="M19 12H5C4.44772 12 4 12.4477 4 13V20.5C4 20.7761 4.22386 21 4.5 21H19.5C19.7761 21 20 20.7761 20 20.5V13C20 12.4477 19.5523 12 19 12Z" stroke="#F8F8F8" stroke-width="2" stroke-linecap="round" stroke-linejoin="round"/>
<path d="M9 16H9.01" stroke="#F8F8F8" stroke-width="2" stroke-linecap="round" stroke-linejoin="round"/>
</svg>
